# xmcd CD database file
#
# Track frame offsets:
#	150
#	17475
#	33900
#	48375
#	65025
#	78675
#	96075
#	112800
#	132525
#	150750
#	167400
#	179175
#	192000
#
# Disc length: 2781 seconds
#
# Revision: 0
# Processed by: cddbd v1.4PL0 Copyright (c) Steve Scherf et al.
# Submitted via: CDex 1.50
#
DISCID=a10adb0d
DTITLE=Allan Mikusek - Hviezda na tricku
DYEAR=1900
DGENRE=Country
TTITLE0=Skusam
TTITLE1=Co o mne vies
TTITLE2=Stado
TTITLE3=Nemozes v kute stat
TTITLE4=Hviezda na tricku
TTITLE5=Prvy krat
TTITLE6=Svitanie
TTITLE7=Vysnivane blues
TTITLE8=Zajtra odchadzam
TTITLE9=Stare lasky
TTITLE10=Don Juan
TTITLE11=Harley Davidson
TTITLE12=Tebe
EXTD=
EXTT0=
EXTT1=
EXTT2=
EXTT3=
EXTT4=
EXTT5=
EXTT6=
EXTT7=
EXTT8=
EXTT9=
EXTT10=
EXTT11=
EXTT12=
PLAYORDER=
